<svg xmlns="http://www.w3.org/2000/svg" xml:space="preserve" width="30px" height="30px" viewBox="0 0 508 508"><path d="M434.3 119.9c0-7.8-6.3-14.1-14.1-14.1H87.8c-7.8 0-14.1 6.3-14.1 14.1v23.2h360.7v-23.2h-.1z" style="fill:#56ace0"/><path d="M385.6 479.8c7.8 0 14.1-6.3 14.1-14.1V171.4H108.3v294.3c0 7.8 6.3 14.1 14.1 14.1h263.2z" style="fill:#fff"/><path d="M136.5 199.6h235v251.9h-235z" style="fill:#ffc10d"/><path d="M420.2 77.6h-69.3V42.3c0-23.3-19-42.3-42.3-42.3H199.4c-23.3 0-42.3 19-42.3 42.3v35.3H87.8c-23.3 0-42.3 19-42.3 42.3v37.4c0 7.8 6.3 14.1 14.1 14.1H80v294.3C80 489 99 508 122.3 508h263.3c23.3 0 42.3-19 42.3-42.3V171.4h20.5c7.8 0 14.1-6.3 14.1-14.1v-37.4c0-23.3-18.9-42.3-42.3-42.3zM185.3 42.3c0-7.8 6.3-14.1 14.1-14.1h109.2c7.8 0 14.1 6.3 14.1 14.1v35.3H185.3V42.3zm214.4 423.4c0 7.8-6.3 14.1-14.1 14.1H122.4c-7.8 0-14.1-6.3-14.1-14.1V171.4h291.5v294.3h-.1zm34.6-322.5H73.7V120c0-7.8 6.3-14.1 14.1-14.1h332.4c7.8 0 14.1 6.3 14.1 14.1v23.2z" style="fill:#194f82"/><path d="M180.3 433.9c7.8 0 14.1-6.3 14.1-14.1V231.4c0-7.8-6.3-14.1-14.1-14.1s-14.1 6.3-14.1 14.1v188.5c0 7.7 6.3 14 14.1 14zM254 433.9c7.8 0 14.1-6.3 14.1-14.1V231.4c0-7.8-6.3-14.1-14.1-14.1s-14.1 6.3-14.1 14.1v188.5c0 7.7 6.3 14 14.1 14zM327.7 433.9c7.8 0 14.1-6.3 14.1-14.1V231.4c0-7.8-6.3-14.1-14.1-14.1s-14.1 6.3-14.1 14.1v188.5c0 7.7 6.3 14 14.1 14z" style="fill:#194f82"/></svg>